<svg xmlns="http://www.w3.org/2000/svg" width="40" height="40" viewBox="0 0 40 40">
  <g id="logo_login" transform="translate(-205 -40)">
    <path id="路径_6298" data-name="路径 6298" d="M19.994,0C35.992,0,40.01,4.065,40,20.016S35.993,40.006,19.969,40-.01,35.932,0,20,4,0,19.994,0Z" transform="translate(245 40) rotate(90)" fill="#4c8afc"/>
    <g id="组_12520" data-name="组 12520" transform="translate(210.5 56.5)">
      <g id="组_7290" data-name="组 7290" transform="translate(0 0)">
        <g id="组_6993" data-name="组 6993">
          <rect id="矩形_9970" data-name="矩形 9970" width="8.235" height="2.965" rx="1" transform="translate(8.235 2.965) rotate(180)" fill="#fff"/>
          <rect id="矩形_9971" data-name="矩形 9971" width="8.235" height="2.965" rx="1" transform="translate(8.235 0) rotate(90)" fill="#fff"/>
        </g>
        <g id="组_12518" data-name="组 12518" transform="translate(9.882)">
          <rect id="矩形_9970-2" data-name="矩形 9970" width="8.235" height="2.965" rx="1" transform="translate(8.235 2.965) rotate(180)" fill="#fff"/>
          <rect id="矩形_9971-2" data-name="矩形 9971" width="8.235" height="2.965" rx="1" transform="translate(8.235 0) rotate(90)" fill="#fff"/>
        </g>
        <g id="组_7288" data-name="组 7288" transform="translate(19.765)">
          <rect id="矩形_9970-3" data-name="矩形 9970" width="8.235" height="2.965" rx="1" transform="translate(8.235 2.965) rotate(180)" fill="#fff"/>
          <rect id="矩形_9971-3" data-name="矩形 9971" width="8.235" height="2.965" rx="1" transform="translate(8.235 0) rotate(90)" fill="#fff"/>
        </g>
      </g>
    </g>
  </g>
</svg>
